%TF.GenerationSoftware,KiCad,Pcbnew,9.0.1*%
%TF.CreationDate,2025-11-28T17:08:09+01:00*%
%TF.ProjectId,SCD41-D-R1_demo,53434434-312d-4442-9d52-315f64656d6f,rev?*%
%TF.SameCoordinates,Original*%
%TF.FileFunction,Copper,L2,Inr*%
%TF.FilePolarity,Positive*%
%FSLAX46Y46*%
G04 Gerber Fmt 4.6, Leading zero omitted, Abs format (unit mm)*
G04 Created by KiCad (PCBNEW 9.0.1) date 2025-11-28 17:08:09*
%MOMM*%
%LPD*%
G01*
G04 APERTURE LIST*
%TA.AperFunction,HeatsinkPad*%
%ADD10O,1.000000X2.100000*%
%TD*%
%TA.AperFunction,HeatsinkPad*%
%ADD11O,1.000000X1.600000*%
%TD*%
%TA.AperFunction,HeatsinkPad*%
%ADD12C,0.600000*%
%TD*%
%TA.AperFunction,ViaPad*%
%ADD13C,0.600000*%
%TD*%
G04 APERTURE END LIST*
D10*
%TO.N,GND*%
%TO.C,J4*%
X182717500Y-98240000D03*
D11*
X182717500Y-102420000D03*
D10*
X191357500Y-98240000D03*
D11*
X191357500Y-102420000D03*
%TD*%
D12*
%TO.N,GND*%
%TO.C,U4*%
X171890000Y-73427500D03*
X171890000Y-74952500D03*
X172652500Y-72665000D03*
X172652500Y-74190000D03*
X172652500Y-75715000D03*
X173415000Y-73427500D03*
X173415000Y-74952500D03*
X174177500Y-72665000D03*
X174177500Y-74190000D03*
X174177500Y-75715000D03*
X174940000Y-73427500D03*
X174940000Y-74952500D03*
%TD*%
D13*
%TO.N,D+*%
X186687500Y-96166988D03*
X187887500Y-96166987D03*
%TO.N,VIN*%
X184587500Y-95750000D03*
X189250000Y-96000000D03*
%TO.N,GND*%
X191000000Y-86750000D03*
%TO.N,Net-(Q1A-E1)*%
X197000000Y-81900000D03*
X196750000Y-83250000D03*
%TO.N,TX*%
X190750000Y-74000000D03*
X194752983Y-85741051D03*
%TO.N,RX*%
X188750000Y-76250000D03*
X194500000Y-86500000D03*
%TO.N,EN*%
X180750000Y-69500000D03*
X188250000Y-69250000D03*
%TO.N,SCL*%
X181200735Y-72950735D03*
X181250000Y-74750000D03*
%TO.N,GND*%
X174750000Y-94100000D03*
X190250000Y-96250000D03*
X183750000Y-96250000D03*
X184500000Y-92500000D03*
X185000000Y-89000000D03*
X182000000Y-88000000D03*
X186000000Y-86500000D03*
%TO.N,+3.3V*%
X190500000Y-77750000D03*
X194500000Y-72750000D03*
%TO.N,GND*%
X194500000Y-74000000D03*
%TO.N,+3.3V*%
X186750000Y-70250000D03*
%TO.N,GND*%
X181750000Y-67000000D03*
X195500000Y-89250000D03*
X195750000Y-90750000D03*
%TO.N,+3.3V*%
X192500000Y-94000000D03*
X192000000Y-91500000D03*
X189000000Y-86500000D03*
X189000000Y-88000000D03*
X190500000Y-89000000D03*
%TO.N,GND*%
X187906985Y-94900000D03*
X194000000Y-102750000D03*
X180000000Y-103750000D03*
%TO.N,+3.3V*%
X173500000Y-88750000D03*
X174250000Y-102750000D03*
%TO.N,GND*%
X172250000Y-99500000D03*
%TO.N,+3.3V*%
X173500000Y-99500000D03*
X173000000Y-101250000D03*
%TO.N,GND*%
X171000000Y-100500000D03*
X172250000Y-88750000D03*
X168500000Y-86000000D03*
%TO.N,+3.3V*%
X164250000Y-68250000D03*
X163250000Y-69750000D03*
X163250000Y-68250000D03*
%TO.N,GND*%
X164250000Y-67000000D03*
X160500000Y-71250000D03*
X160500000Y-69750000D03*
X160500000Y-68250000D03*
%TD*%
%TA.AperFunction,Conductor*%
%TO.N,GND*%
G36*
X199442539Y-65520185D02*
G01*
X199488294Y-65572989D01*
X199499500Y-65624500D01*
X199499500Y-104375500D01*
X199479815Y-104442539D01*
X199427011Y-104488294D01*
X199375500Y-104499500D01*
X159574500Y-104499500D01*
X159507461Y-104479815D01*
X159461706Y-104427011D01*
X159450500Y-104375500D01*
X159450500Y-102671153D01*
X173449500Y-102671153D01*
X173449500Y-102828846D01*
X173480261Y-102983489D01*
X173480264Y-102983501D01*
X173540602Y-103129172D01*
X173540609Y-103129185D01*
X173628210Y-103260288D01*
X173628213Y-103260292D01*
X173739707Y-103371786D01*
X173739711Y-103371789D01*
X173870814Y-103459390D01*
X173870827Y-103459397D01*
X174016498Y-103519735D01*
X174016503Y-103519737D01*
X174171153Y-103550499D01*
X174171156Y-103550500D01*
X174171158Y-103550500D01*
X174328844Y-103550500D01*
X174328845Y-103550499D01*
X174483497Y-103519737D01*
X174629179Y-103459394D01*
X174760289Y-103371789D01*
X174871789Y-103260289D01*
X174959394Y-103129179D01*
X175019737Y-102983497D01*
X175050500Y-102828842D01*
X175050500Y-102671158D01*
X175050500Y-102671155D01*
X175050499Y-102671153D01*
X175019738Y-102516510D01*
X175019737Y-102516503D01*
X175019735Y-102516498D01*
X174959397Y-102370827D01*
X174959390Y-102370814D01*
X174871789Y-102239711D01*
X174871786Y-102239707D01*
X174760292Y-102128213D01*
X174760288Y-102128210D01*
X174629185Y-102040609D01*
X174629172Y-102040602D01*
X174483501Y-101980264D01*
X174483489Y-101980261D01*
X174328845Y-101949500D01*
X174328842Y-101949500D01*
X174171158Y-101949500D01*
X174171155Y-101949500D01*
X174016510Y-101980261D01*
X174016498Y-101980264D01*
X173870827Y-102040602D01*
X173870814Y-102040609D01*
X173739711Y-102128210D01*
X173739707Y-102128213D01*
X173628213Y-102239707D01*
X173628210Y-102239711D01*
X173540609Y-102370814D01*
X173540602Y-102370827D01*
X173480264Y-102516498D01*
X173480261Y-102516510D01*
X173449500Y-102671153D01*
X159450500Y-102671153D01*
X159450500Y-101171153D01*
X172199500Y-101171153D01*
X172199500Y-101328846D01*
X172230261Y-101483489D01*
X172230264Y-101483501D01*
X172290602Y-101629172D01*
X172290609Y-101629185D01*
X172378210Y-101760288D01*
X172378213Y-101760292D01*
X172489707Y-101871786D01*
X172489711Y-101871789D01*
X172620814Y-101959390D01*
X172620827Y-101959397D01*
X172766498Y-102019735D01*
X172766503Y-102019737D01*
X172921153Y-102050499D01*
X172921156Y-102050500D01*
X172921158Y-102050500D01*
X173078844Y-102050500D01*
X173078845Y-102050499D01*
X173233497Y-102019737D01*
X173379179Y-101959394D01*
X173510289Y-101871789D01*
X173621789Y-101760289D01*
X173709394Y-101629179D01*
X173769737Y-101483497D01*
X173800500Y-101328842D01*
X173800500Y-101171158D01*
X173800500Y-101171155D01*
X173800499Y-101171153D01*
X173769738Y-101016510D01*
X173769737Y-101016503D01*
X173769735Y-101016498D01*
X173709397Y-100870827D01*
X173709390Y-100870814D01*
X173621789Y-100739711D01*
X173621786Y-100739707D01*
X173510292Y-100628213D01*
X173510288Y-100628210D01*
X173379185Y-100540609D01*
X173379178Y-100540605D01*
X173375451Y-100539062D01*
X173321047Y-100495222D01*
X173298981Y-100428928D01*
X173316259Y-100361229D01*
X173367395Y-100313617D01*
X173422902Y-100300500D01*
X173578844Y-100300500D01*
X173578845Y-100300499D01*
X173733497Y-100269737D01*
X173846166Y-100223067D01*
X173879172Y-100209397D01*
X173879172Y-100209396D01*
X173879179Y-100209394D01*
X174010289Y-100121789D01*
X174121789Y-100010289D01*
X174209394Y-99879179D01*
X174269737Y-99733497D01*
X174300500Y-99578842D01*
X174300500Y-99421158D01*
X174300500Y-99421155D01*
X174300499Y-99421153D01*
X174269737Y-99266503D01*
X174269735Y-99266498D01*
X174209397Y-99120827D01*
X174209390Y-99120814D01*
X174121789Y-98989711D01*
X174121786Y-98989707D01*
X174010292Y-98878213D01*
X174010288Y-98878210D01*
X173879183Y-98790608D01*
X173879172Y-98790602D01*
X173733501Y-98730264D01*
X173733489Y-98730261D01*
X173578845Y-98699500D01*
X173578842Y-98699500D01*
X173421158Y-98699500D01*
X173421155Y-98699500D01*
X173266510Y-98730261D01*
X173266498Y-98730264D01*
X173120827Y-98790602D01*
X173120814Y-98790609D01*
X172989711Y-98878210D01*
X172989707Y-98878213D01*
X172878213Y-98989707D01*
X172878210Y-98989711D01*
X172790609Y-99120814D01*
X172790602Y-99120827D01*
X172730264Y-99266498D01*
X172730261Y-99266510D01*
X172699500Y-99421153D01*
X172699500Y-99578846D01*
X172730261Y-99733489D01*
X172730264Y-99733501D01*
X172790602Y-99879172D01*
X172790609Y-99879185D01*
X172878210Y-100010288D01*
X172878213Y-100010292D01*
X172989707Y-100121786D01*
X172989711Y-100121789D01*
X173120814Y-100209390D01*
X173120821Y-100209394D01*
X173124549Y-100210938D01*
X173178953Y-100254778D01*
X173201019Y-100321072D01*
X173183741Y-100388771D01*
X173132605Y-100436383D01*
X173077098Y-100449500D01*
X172921155Y-100449500D01*
X172766510Y-100480261D01*
X172766498Y-100480264D01*
X172620827Y-100540602D01*
X172620814Y-100540609D01*
X172489711Y-100628210D01*
X172489707Y-100628213D01*
X172378213Y-100739707D01*
X172378210Y-100739711D01*
X172290609Y-100870814D01*
X172290602Y-100870827D01*
X172230264Y-101016498D01*
X172230261Y-101016510D01*
X172199500Y-101171153D01*
X159450500Y-101171153D01*
X159450500Y-98694234D01*
X183572000Y-98694234D01*
X183572000Y-98845765D01*
X183611219Y-98992136D01*
X183649102Y-99057750D01*
X183686985Y-99123365D01*
X183794135Y-99230515D01*
X183925365Y-99306281D01*
X184071734Y-99345500D01*
X184071736Y-99345500D01*
X184223264Y-99345500D01*
X184223266Y-99345500D01*
X184369635Y-99306281D01*
X184500865Y-99230515D01*
X184608015Y-99123365D01*
X184683781Y-98992135D01*
X184723000Y-98845766D01*
X184723000Y-98694234D01*
X189352000Y-98694234D01*
X189352000Y-98845765D01*
X189391219Y-98992136D01*
X189429102Y-99057750D01*
X189466985Y-99123365D01*
X189574135Y-99230515D01*
X189705365Y-99306281D01*
X189851734Y-99345500D01*
X189851736Y-99345500D01*
X190003264Y-99345500D01*
X190003266Y-99345500D01*
X190149635Y-99306281D01*
X190280865Y-99230515D01*
X190388015Y-99123365D01*
X190463781Y-98992135D01*
X190503000Y-98845766D01*
X190503000Y-98694234D01*
X190463781Y-98547865D01*
X190388015Y-98416635D01*
X190280865Y-98309485D01*
X190215250Y-98271602D01*
X190149636Y-98233719D01*
X190076450Y-98214109D01*
X190003266Y-98194500D01*
X189851734Y-98194500D01*
X189705363Y-98233719D01*
X189574135Y-98309485D01*
X189574132Y-98309487D01*
X189466987Y-98416632D01*
X189466985Y-98416635D01*
X189391219Y-98547863D01*
X189352000Y-98694234D01*
X184723000Y-98694234D01*
X184683781Y-98547865D01*
X184608015Y-98416635D01*
X184500865Y-98309485D01*
X184435250Y-98271602D01*
X184369636Y-98233719D01*
X184296450Y-98214109D01*
X184223266Y-98194500D01*
X184071734Y-98194500D01*
X183925363Y-98233719D01*
X183794135Y-98309485D01*
X183794132Y-98309487D01*
X183686987Y-98416632D01*
X183686985Y-98416635D01*
X183611219Y-98547863D01*
X183572000Y-98694234D01*
X159450500Y-98694234D01*
X159450500Y-95671153D01*
X183787000Y-95671153D01*
X183787000Y-95828846D01*
X183817761Y-95983489D01*
X183817764Y-95983501D01*
X183878102Y-96129172D01*
X183878109Y-96129185D01*
X183965710Y-96260288D01*
X183965713Y-96260292D01*
X184077207Y-96371786D01*
X184077211Y-96371789D01*
X184208314Y-96459390D01*
X184208327Y-96459397D01*
X184353998Y-96519735D01*
X184354003Y-96519737D01*
X184486870Y-96546166D01*
X184508653Y-96550499D01*
X184508656Y-96550500D01*
X184508658Y-96550500D01*
X184666344Y-96550500D01*
X184666345Y-96550499D01*
X184820997Y-96519737D01*
X184966679Y-96459394D01*
X185097789Y-96371789D01*
X185209289Y-96260289D01*
X185296894Y-96129179D01*
X185313890Y-96088146D01*
X185313892Y-96088141D01*
X185887000Y-96088141D01*
X185887000Y-96245834D01*
X185917761Y-96400477D01*
X185917764Y-96400489D01*
X185978102Y-96546160D01*
X185978109Y-96546173D01*
X186065710Y-96677276D01*
X186065713Y-96677280D01*
X186177207Y-96788774D01*
X186177211Y-96788777D01*
X186308314Y-96876378D01*
X186308327Y-96876385D01*
X186453996Y-96936722D01*
X186454003Y-96936725D01*
X186608648Y-96967486D01*
X186608653Y-96967487D01*
X186608656Y-96967488D01*
X186608658Y-96967488D01*
X186766344Y-96967488D01*
X186766345Y-96967487D01*
X186920997Y-96936725D01*
X187066679Y-96876382D01*
X187197789Y-96788777D01*
X187199814Y-96786751D01*
X187201135Y-96786030D01*
X187202493Y-96784916D01*
X187202704Y-96785173D01*
X187261132Y-96753263D01*
X187330824Y-96758242D01*
X187372439Y-96784986D01*
X187372501Y-96784911D01*
X187373148Y-96785441D01*
X187375188Y-96786753D01*
X187377211Y-96788776D01*
X187508314Y-96876377D01*
X187508327Y-96876384D01*
X187653998Y-96936722D01*
X187654003Y-96936724D01*
X187808653Y-96967486D01*
X187808656Y-96967487D01*
X187808658Y-96967487D01*
X187966344Y-96967487D01*
X187966345Y-96967486D01*
X188120997Y-96936724D01*
X188233666Y-96890054D01*
X188266672Y-96876384D01*
X188266672Y-96876383D01*
X188266679Y-96876381D01*
X188397789Y-96788776D01*
X188509289Y-96677276D01*
X188539864Y-96631516D01*
X188593474Y-96586712D01*
X188662799Y-96578003D01*
X188725827Y-96608157D01*
X188730647Y-96612726D01*
X188739707Y-96621786D01*
X188739711Y-96621789D01*
X188870814Y-96709390D01*
X188870827Y-96709397D01*
X188988751Y-96758242D01*
X189016503Y-96769737D01*
X189171153Y-96800499D01*
X189171156Y-96800500D01*
X189171158Y-96800500D01*
X189328844Y-96800500D01*
X189328845Y-96800499D01*
X189483497Y-96769737D01*
X189629179Y-96709394D01*
X189760289Y-96621789D01*
X189871789Y-96510289D01*
X189959394Y-96379179D01*
X190019737Y-96233497D01*
X190050500Y-96078842D01*
X190050500Y-95921158D01*
X190050500Y-95921155D01*
X190050499Y-95921153D01*
X190023975Y-95787809D01*
X190019737Y-95766503D01*
X189974255Y-95656698D01*
X189959397Y-95620827D01*
X189959390Y-95620814D01*
X189871789Y-95489711D01*
X189871786Y-95489707D01*
X189760292Y-95378213D01*
X189760288Y-95378210D01*
X189629185Y-95290609D01*
X189629172Y-95290602D01*
X189483501Y-95230264D01*
X189483489Y-95230261D01*
X189328845Y-95199500D01*
X189328842Y-95199500D01*
X189171158Y-95199500D01*
X189171155Y-95199500D01*
X189016510Y-95230261D01*
X189016498Y-95230264D01*
X188870827Y-95290602D01*
X188870814Y-95290609D01*
X188739711Y-95378210D01*
X188739707Y-95378213D01*
X188628213Y-95489707D01*
X188628210Y-95489711D01*
X188597635Y-95535470D01*
X188544022Y-95580275D01*
X188474697Y-95588982D01*
X188411670Y-95558827D01*
X188406852Y-95554260D01*
X188397792Y-95545200D01*
X188397788Y-95545197D01*
X188266685Y-95457596D01*
X188266672Y-95457589D01*
X188121001Y-95397251D01*
X188120989Y-95397248D01*
X187966345Y-95366487D01*
X187966342Y-95366487D01*
X187808658Y-95366487D01*
X187808655Y-95366487D01*
X187654010Y-95397248D01*
X187653998Y-95397251D01*
X187508327Y-95457589D01*
X187508314Y-95457596D01*
X187377214Y-95545195D01*
X187377202Y-95545205D01*
X187375166Y-95547241D01*
X187373840Y-95547964D01*
X187372507Y-95549059D01*
X187372299Y-95548805D01*
X187313838Y-95580716D01*
X187244147Y-95575721D01*
X187202560Y-95548989D01*
X187202499Y-95549064D01*
X187201859Y-95548539D01*
X187199818Y-95547227D01*
X187197792Y-95545201D01*
X187197788Y-95545198D01*
X187066685Y-95457597D01*
X187066672Y-95457590D01*
X186921001Y-95397252D01*
X186920989Y-95397249D01*
X186766345Y-95366488D01*
X186766342Y-95366488D01*
X186608658Y-95366488D01*
X186608655Y-95366488D01*
X186454010Y-95397249D01*
X186453998Y-95397252D01*
X186308327Y-95457590D01*
X186308314Y-95457597D01*
X186177211Y-95545198D01*
X186177207Y-95545201D01*
X186065713Y-95656695D01*
X186065710Y-95656699D01*
X185978109Y-95787802D01*
X185978102Y-95787815D01*
X185917764Y-95933486D01*
X185917761Y-95933498D01*
X185887000Y-96088141D01*
X185313892Y-96088141D01*
X185336069Y-96034602D01*
X185357235Y-95983501D01*
X185357237Y-95983497D01*
X185388000Y-95828842D01*
X185388000Y-95671158D01*
X185388000Y-95671155D01*
X185387999Y-95671153D01*
X185385123Y-95656695D01*
X185357237Y-95516503D01*
X185357235Y-95516498D01*
X185296897Y-95370827D01*
X185296890Y-95370814D01*
X185209289Y-95239711D01*
X185209286Y-95239707D01*
X185097792Y-95128213D01*
X185097788Y-95128210D01*
X184966685Y-95040609D01*
X184966672Y-95040602D01*
X184821001Y-94980264D01*
X184820989Y-94980261D01*
X184666345Y-94949500D01*
X184666342Y-94949500D01*
X184508658Y-94949500D01*
X184508655Y-94949500D01*
X184354010Y-94980261D01*
X184353998Y-94980264D01*
X184208327Y-95040602D01*
X184208314Y-95040609D01*
X184077211Y-95128210D01*
X184077207Y-95128213D01*
X183965713Y-95239707D01*
X183965710Y-95239711D01*
X183878109Y-95370814D01*
X183878102Y-95370827D01*
X183817764Y-95516498D01*
X183817761Y-95516510D01*
X183787000Y-95671153D01*
X159450500Y-95671153D01*
X159450500Y-93921153D01*
X191699500Y-93921153D01*
X191699500Y-94078846D01*
X191730261Y-94233489D01*
X191730264Y-94233501D01*
X191790602Y-94379172D01*
X191790609Y-94379185D01*
X191878210Y-94510288D01*
X191878213Y-94510292D01*
X191989707Y-94621786D01*
X191989711Y-94621789D01*
X192120814Y-94709390D01*
X192120827Y-94709397D01*
X192266498Y-94769735D01*
X192266503Y-94769737D01*
X192421153Y-94800499D01*
X192421156Y-94800500D01*
X192421158Y-94800500D01*
X192578844Y-94800500D01*
X192578845Y-94800499D01*
X192733497Y-94769737D01*
X192879179Y-94709394D01*
X193010289Y-94621789D01*
X193121789Y-94510289D01*
X193209394Y-94379179D01*
X193269737Y-94233497D01*
X193300500Y-94078842D01*
X193300500Y-93921158D01*
X193300500Y-93921155D01*
X193300499Y-93921153D01*
X193269738Y-93766510D01*
X193269737Y-93766503D01*
X193269735Y-93766498D01*
X193209397Y-93620827D01*
X193209390Y-93620814D01*
X193121789Y-93489711D01*
X193121786Y-93489707D01*
X193010292Y-93378213D01*
X193010288Y-93378210D01*
X192879185Y-93290609D01*
X192879172Y-93290602D01*
X192733501Y-93230264D01*
X192733489Y-93230261D01*
X192578845Y-93199500D01*
X192578842Y-93199500D01*
X192421158Y-93199500D01*
X192421155Y-93199500D01*
X192266510Y-93230261D01*
X192266498Y-93230264D01*
X192120827Y-93290602D01*
X192120814Y-93290609D01*
X191989711Y-93378210D01*
X191989707Y-93378213D01*
X191878213Y-93489707D01*
X191878210Y-93489711D01*
X191790609Y-93620814D01*
X191790602Y-93620827D01*
X191730264Y-93766498D01*
X191730261Y-93766510D01*
X191699500Y-93921153D01*
X159450500Y-93921153D01*
X159450500Y-91421153D01*
X191199500Y-91421153D01*
X191199500Y-91578846D01*
X191230261Y-91733489D01*
X191230264Y-91733501D01*
X191290602Y-91879172D01*
X191290609Y-91879185D01*
X191378210Y-92010288D01*
X191378213Y-92010292D01*
X191489707Y-92121786D01*
X191489711Y-92121789D01*
X191620814Y-92209390D01*
X191620827Y-92209397D01*
X191766498Y-92269735D01*
X191766503Y-92269737D01*
X191921153Y-92300499D01*
X191921156Y-92300500D01*
X191921158Y-92300500D01*
X192078844Y-92300500D01*
X192078845Y-92300499D01*
X192233497Y-92269737D01*
X192379179Y-92209394D01*
X192510289Y-92121789D01*
X192621789Y-92010289D01*
X192709394Y-91879179D01*
X192769737Y-91733497D01*
X192800500Y-91578842D01*
X192800500Y-91421158D01*
X192800500Y-91421155D01*
X192800499Y-91421153D01*
X192769738Y-91266510D01*
X192769737Y-91266503D01*
X192769735Y-91266498D01*
X192709397Y-91120827D01*
X192709390Y-91120814D01*
X192621789Y-90989711D01*
X192621786Y-90989707D01*
X192510292Y-90878213D01*
X192510288Y-90878210D01*
X192379185Y-90790609D01*
X192379172Y-90790602D01*
X192233501Y-90730264D01*
X192233489Y-90730261D01*
X192078845Y-90699500D01*
X192078842Y-90699500D01*
X191921158Y-90699500D01*
X191921155Y-90699500D01*
X191766510Y-90730261D01*
X191766498Y-90730264D01*
X191620827Y-90790602D01*
X191620814Y-90790609D01*
X191489711Y-90878210D01*
X191489707Y-90878213D01*
X191378213Y-90989707D01*
X191378210Y-90989711D01*
X191290609Y-91120814D01*
X191290602Y-91120827D01*
X191230264Y-91266498D01*
X191230261Y-91266510D01*
X191199500Y-91421153D01*
X159450500Y-91421153D01*
X159450500Y-88671153D01*
X172699500Y-88671153D01*
X172699500Y-88828846D01*
X172730261Y-88983489D01*
X172730264Y-88983501D01*
X172790602Y-89129172D01*
X172790609Y-89129185D01*
X172878210Y-89260288D01*
X172878213Y-89260292D01*
X172989707Y-89371786D01*
X172989711Y-89371789D01*
X173120814Y-89459390D01*
X173120827Y-89459397D01*
X173266498Y-89519735D01*
X173266503Y-89519737D01*
X173421153Y-89550499D01*
X173421156Y-89550500D01*
X173421158Y-89550500D01*
X173578844Y-89550500D01*
X173578845Y-89550499D01*
X173733497Y-89519737D01*
X173879179Y-89459394D01*
X174010289Y-89371789D01*
X174121789Y-89260289D01*
X174209394Y-89129179D01*
X174269737Y-88983497D01*
X174300500Y-88828842D01*
X174300500Y-88671158D01*
X174300500Y-88671155D01*
X174300499Y-88671153D01*
X174285971Y-88598115D01*
X174269737Y-88516503D01*
X174267163Y-88510288D01*
X174209397Y-88370827D01*
X174209390Y-88370814D01*
X174121789Y-88239711D01*
X174121786Y-88239707D01*
X174010292Y-88128213D01*
X174010288Y-88128210D01*
X173879185Y-88040609D01*
X173879172Y-88040602D01*
X173733501Y-87980264D01*
X173733489Y-87980261D01*
X173578845Y-87949500D01*
X173578842Y-87949500D01*
X173421158Y-87949500D01*
X173421155Y-87949500D01*
X173266510Y-87980261D01*
X173266498Y-87980264D01*
X173120827Y-88040602D01*
X173120814Y-88040609D01*
X172989711Y-88128210D01*
X172989707Y-88128213D01*
X172878213Y-88239707D01*
X172878210Y-88239711D01*
X172790609Y-88370814D01*
X172790602Y-88370827D01*
X172730264Y-88516498D01*
X172730261Y-88516510D01*
X172699500Y-88671153D01*
X159450500Y-88671153D01*
X159450500Y-86421153D01*
X188199500Y-86421153D01*
X188199500Y-86578846D01*
X188230261Y-86733489D01*
X188230264Y-86733501D01*
X188290602Y-86879172D01*
X188290609Y-86879185D01*
X188378210Y-87010288D01*
X188378213Y-87010292D01*
X188489707Y-87121786D01*
X188489710Y-87121788D01*
X188489711Y-87121789D01*
X188515219Y-87138833D01*
X188527289Y-87146898D01*
X188572093Y-87200511D01*
X188580800Y-87269836D01*
X188550645Y-87332863D01*
X188527289Y-87353102D01*
X188489707Y-87378213D01*
X188378213Y-87489707D01*
X188378210Y-87489711D01*
X188290609Y-87620814D01*
X188290602Y-87620827D01*
X188230264Y-87766498D01*
X188230261Y-87766510D01*
X188199500Y-87921153D01*
X188199500Y-88078846D01*
X188230261Y-88233489D01*
X188230264Y-88233501D01*
X188290602Y-88379172D01*
X188290609Y-88379185D01*
X188378210Y-88510288D01*
X188378213Y-88510292D01*
X188489707Y-88621786D01*
X188489711Y-88621789D01*
X188620814Y-88709390D01*
X188620827Y-88709397D01*
X188758683Y-88766498D01*
X188766503Y-88769737D01*
X188921153Y-88800499D01*
X188921156Y-88800500D01*
X188921158Y-88800500D01*
X189078844Y-88800500D01*
X189078845Y-88800499D01*
X189233497Y-88769737D01*
X189379179Y-88709394D01*
X189510289Y-88621789D01*
X189547331Y-88584747D01*
X189608653Y-88551261D01*
X189678345Y-88556245D01*
X189734279Y-88598115D01*
X189758697Y-88663579D01*
X189749575Y-88719878D01*
X189730263Y-88766502D01*
X189730261Y-88766510D01*
X189699500Y-88921153D01*
X189699500Y-89078846D01*
X189730261Y-89233489D01*
X189730264Y-89233501D01*
X189790602Y-89379172D01*
X189790609Y-89379185D01*
X189878210Y-89510288D01*
X189878213Y-89510292D01*
X189989707Y-89621786D01*
X189989711Y-89621789D01*
X190120814Y-89709390D01*
X190120827Y-89709397D01*
X190266498Y-89769735D01*
X190266503Y-89769737D01*
X190421153Y-89800499D01*
X190421156Y-89800500D01*
X190421158Y-89800500D01*
X190578844Y-89800500D01*
X190578845Y-89800499D01*
X190733497Y-89769737D01*
X190879179Y-89709394D01*
X191010289Y-89621789D01*
X191121789Y-89510289D01*
X191209394Y-89379179D01*
X191269737Y-89233497D01*
X191300500Y-89078842D01*
X191300500Y-88921158D01*
X191300500Y-88921155D01*
X191300499Y-88921153D01*
X191269738Y-88766510D01*
X191269737Y-88766503D01*
X191269735Y-88766498D01*
X191209397Y-88620827D01*
X191209390Y-88620814D01*
X191121789Y-88489711D01*
X191121786Y-88489707D01*
X191010292Y-88378213D01*
X191010288Y-88378210D01*
X190879185Y-88290609D01*
X190879172Y-88290602D01*
X190733501Y-88230264D01*
X190733489Y-88230261D01*
X190578845Y-88199500D01*
X190578842Y-88199500D01*
X190421158Y-88199500D01*
X190421155Y-88199500D01*
X190266510Y-88230261D01*
X190266498Y-88230264D01*
X190120827Y-88290602D01*
X190120814Y-88290609D01*
X189989711Y-88378210D01*
X189989706Y-88378214D01*
X189952666Y-88415254D01*
X189891343Y-88448739D01*
X189821651Y-88443753D01*
X189765718Y-88401881D01*
X189741302Y-88336417D01*
X189750424Y-88280121D01*
X189769737Y-88233497D01*
X189800500Y-88078842D01*
X189800500Y-87921158D01*
X189800500Y-87921155D01*
X189800499Y-87921153D01*
X189769738Y-87766510D01*
X189769737Y-87766503D01*
X189769735Y-87766498D01*
X189709397Y-87620827D01*
X189709390Y-87620814D01*
X189621789Y-87489711D01*
X189621786Y-87489707D01*
X189510292Y-87378213D01*
X189510284Y-87378207D01*
X189472712Y-87353102D01*
X189427906Y-87299490D01*
X189419199Y-87230165D01*
X189449353Y-87167138D01*
X189472712Y-87146898D01*
X189499279Y-87129145D01*
X189510289Y-87121789D01*
X189621789Y-87010289D01*
X189709394Y-86879179D01*
X189769737Y-86733497D01*
X189800500Y-86578842D01*
X189800500Y-86421158D01*
X189800500Y-86421155D01*
X189800499Y-86421153D01*
X193699500Y-86421153D01*
X193699500Y-86578846D01*
X193730261Y-86733489D01*
X193730264Y-86733501D01*
X193790602Y-86879172D01*
X193790609Y-86879185D01*
X193878210Y-87010288D01*
X193878213Y-87010292D01*
X193989707Y-87121786D01*
X193989711Y-87121789D01*
X194120814Y-87209390D01*
X194120827Y-87209397D01*
X194218853Y-87250000D01*
X194266503Y-87269737D01*
X194421153Y-87300499D01*
X194421156Y-87300500D01*
X194421158Y-87300500D01*
X194578844Y-87300500D01*
X194578845Y-87300499D01*
X194733497Y-87269737D01*
X194879179Y-87209394D01*
X195010289Y-87121789D01*
X195121789Y-87010289D01*
X195209394Y-86879179D01*
X195269737Y-86733497D01*
X195300500Y-86578842D01*
X195300500Y-86421158D01*
X195300500Y-86421155D01*
X195297579Y-86406474D01*
X195303803Y-86336882D01*
X195331514Y-86294597D01*
X195374772Y-86251340D01*
X195462377Y-86120230D01*
X195522720Y-85974548D01*
X195553483Y-85819893D01*
X195553483Y-85662209D01*
X195553483Y-85662206D01*
X195553482Y-85662204D01*
X195522721Y-85507561D01*
X195522720Y-85507554D01*
X195522718Y-85507549D01*
X195462380Y-85361878D01*
X195462373Y-85361865D01*
X195374772Y-85230762D01*
X195374769Y-85230758D01*
X195263275Y-85119264D01*
X195263271Y-85119261D01*
X195132168Y-85031660D01*
X195132155Y-85031653D01*
X194986484Y-84971315D01*
X194986472Y-84971312D01*
X194831828Y-84940551D01*
X194831825Y-84940551D01*
X194674141Y-84940551D01*
X194674138Y-84940551D01*
X194519493Y-84971312D01*
X194519481Y-84971315D01*
X194373810Y-85031653D01*
X194373797Y-85031660D01*
X194242694Y-85119261D01*
X194242690Y-85119264D01*
X194131196Y-85230758D01*
X194131193Y-85230762D01*
X194043592Y-85361865D01*
X194043585Y-85361878D01*
X193983247Y-85507549D01*
X193983244Y-85507561D01*
X193952483Y-85662204D01*
X193952483Y-85819894D01*
X193955404Y-85834578D01*
X193949177Y-85904170D01*
X193921470Y-85946450D01*
X193878212Y-85989708D01*
X193878208Y-85989714D01*
X193790609Y-86120814D01*
X193790602Y-86120827D01*
X193730264Y-86266498D01*
X193730261Y-86266510D01*
X193699500Y-86421153D01*
X189800499Y-86421153D01*
X189769738Y-86266510D01*
X189769737Y-86266503D01*
X189763455Y-86251337D01*
X189709397Y-86120827D01*
X189709390Y-86120814D01*
X189621789Y-85989711D01*
X189621786Y-85989707D01*
X189510292Y-85878213D01*
X189510288Y-85878210D01*
X189379185Y-85790609D01*
X189379172Y-85790602D01*
X189233501Y-85730264D01*
X189233489Y-85730261D01*
X189078845Y-85699500D01*
X189078842Y-85699500D01*
X188921158Y-85699500D01*
X188921155Y-85699500D01*
X188766510Y-85730261D01*
X188766498Y-85730264D01*
X188620827Y-85790602D01*
X188620814Y-85790609D01*
X188489711Y-85878210D01*
X188489707Y-85878213D01*
X188378213Y-85989707D01*
X188378210Y-85989711D01*
X188290609Y-86120814D01*
X188290602Y-86120827D01*
X188230264Y-86266498D01*
X188230261Y-86266510D01*
X188199500Y-86421153D01*
X159450500Y-86421153D01*
X159450500Y-83171153D01*
X195949500Y-83171153D01*
X195949500Y-83328846D01*
X195980261Y-83483489D01*
X195980264Y-83483501D01*
X196040602Y-83629172D01*
X196040609Y-83629185D01*
X196128210Y-83760288D01*
X196128213Y-83760292D01*
X196239707Y-83871786D01*
X196239711Y-83871789D01*
X196370814Y-83959390D01*
X196370827Y-83959397D01*
X196516498Y-84019735D01*
X196516503Y-84019737D01*
X196671153Y-84050499D01*
X196671156Y-84050500D01*
X196671158Y-84050500D01*
X196828844Y-84050500D01*
X196828845Y-84050499D01*
X196983497Y-84019737D01*
X197129179Y-83959394D01*
X197260289Y-83871789D01*
X197371789Y-83760289D01*
X197459394Y-83629179D01*
X197519737Y-83483497D01*
X197550500Y-83328842D01*
X197550500Y-83171158D01*
X197550500Y-83171155D01*
X197550499Y-83171153D01*
X197519738Y-83016510D01*
X197519737Y-83016503D01*
X197519735Y-83016498D01*
X197459397Y-82870827D01*
X197459390Y-82870814D01*
X197382762Y-82756133D01*
X197361884Y-82689456D01*
X197380368Y-82622076D01*
X197416970Y-82584142D01*
X197510289Y-82521789D01*
X197621789Y-82410289D01*
X197709394Y-82279179D01*
X197769737Y-82133497D01*
X197800500Y-81978842D01*
X197800500Y-81821158D01*
X197800500Y-81821155D01*
X197800499Y-81821153D01*
X197769738Y-81666510D01*
X197769737Y-81666503D01*
X197769735Y-81666498D01*
X197709397Y-81520827D01*
X197709390Y-81520814D01*
X197621789Y-81389711D01*
X197621786Y-81389707D01*
X197510292Y-81278213D01*
X197510288Y-81278210D01*
X197379185Y-81190609D01*
X197379172Y-81190602D01*
X197233501Y-81130264D01*
X197233489Y-81130261D01*
X197078845Y-81099500D01*
X197078842Y-81099500D01*
X196921158Y-81099500D01*
X196921155Y-81099500D01*
X196766510Y-81130261D01*
X196766498Y-81130264D01*
X196620827Y-81190602D01*
X196620814Y-81190609D01*
X196489711Y-81278210D01*
X196489707Y-81278213D01*
X196378213Y-81389707D01*
X196378210Y-81389711D01*
X196290609Y-81520814D01*
X196290602Y-81520827D01*
X196230264Y-81666498D01*
X196230261Y-81666510D01*
X196199500Y-81821153D01*
X196199500Y-81978846D01*
X196230261Y-82133489D01*
X196230264Y-82133501D01*
X196290602Y-82279172D01*
X196290609Y-82279185D01*
X196367237Y-82393866D01*
X196388115Y-82460544D01*
X196369631Y-82527924D01*
X196333026Y-82565859D01*
X196239711Y-82628210D01*
X196239707Y-82628213D01*
X196128213Y-82739707D01*
X196128210Y-82739711D01*
X196040609Y-82870814D01*
X196040602Y-82870827D01*
X195980264Y-83016498D01*
X195980261Y-83016510D01*
X195949500Y-83171153D01*
X159450500Y-83171153D01*
X159450500Y-77671153D01*
X189699500Y-77671153D01*
X189699500Y-77828846D01*
X189730261Y-77983489D01*
X189730264Y-77983501D01*
X189790602Y-78129172D01*
X189790609Y-78129185D01*
X189878210Y-78260288D01*
X189878213Y-78260292D01*
X189989707Y-78371786D01*
X189989711Y-78371789D01*
X190120814Y-78459390D01*
X190120827Y-78459397D01*
X190266498Y-78519735D01*
X190266503Y-78519737D01*
X190421153Y-78550499D01*
X190421156Y-78550500D01*
X190421158Y-78550500D01*
X190578844Y-78550500D01*
X190578845Y-78550499D01*
X190733497Y-78519737D01*
X190879179Y-78459394D01*
X191010289Y-78371789D01*
X191121789Y-78260289D01*
X191209394Y-78129179D01*
X191269737Y-77983497D01*
X191300500Y-77828842D01*
X191300500Y-77671158D01*
X191300500Y-77671155D01*
X191300499Y-77671153D01*
X191269738Y-77516510D01*
X191269737Y-77516503D01*
X191269735Y-77516498D01*
X191209397Y-77370827D01*
X191209390Y-77370814D01*
X191121789Y-77239711D01*
X191121786Y-77239707D01*
X191010292Y-77128213D01*
X191010288Y-77128210D01*
X190879185Y-77040609D01*
X190879172Y-77040602D01*
X190733501Y-76980264D01*
X190733489Y-76980261D01*
X190578845Y-76949500D01*
X190578842Y-76949500D01*
X190421158Y-76949500D01*
X190421155Y-76949500D01*
X190266510Y-76980261D01*
X190266498Y-76980264D01*
X190120827Y-77040602D01*
X190120814Y-77040609D01*
X189989711Y-77128210D01*
X189989707Y-77128213D01*
X189878213Y-77239707D01*
X189878210Y-77239711D01*
X189790609Y-77370814D01*
X189790602Y-77370827D01*
X189730264Y-77516498D01*
X189730261Y-77516510D01*
X189699500Y-77671153D01*
X159450500Y-77671153D01*
X159450500Y-76171153D01*
X187949500Y-76171153D01*
X187949500Y-76328846D01*
X187980261Y-76483489D01*
X187980264Y-76483501D01*
X188040602Y-76629172D01*
X188040609Y-76629185D01*
X188128210Y-76760288D01*
X188128213Y-76760292D01*
X188239707Y-76871786D01*
X188239711Y-76871789D01*
X188370814Y-76959390D01*
X188370827Y-76959397D01*
X188516498Y-77019735D01*
X188516503Y-77019737D01*
X188671153Y-77050499D01*
X188671156Y-77050500D01*
X188671158Y-77050500D01*
X188828844Y-77050500D01*
X188828845Y-77050499D01*
X188983497Y-77019737D01*
X189129179Y-76959394D01*
X189260289Y-76871789D01*
X189371789Y-76760289D01*
X189459394Y-76629179D01*
X189519737Y-76483497D01*
X189550500Y-76328842D01*
X189550500Y-76171158D01*
X189550500Y-76171155D01*
X189550499Y-76171153D01*
X189519738Y-76016510D01*
X189519737Y-76016503D01*
X189519735Y-76016498D01*
X189459397Y-75870827D01*
X189459390Y-75870814D01*
X189371789Y-75739711D01*
X189371786Y-75739707D01*
X189260292Y-75628213D01*
X189260288Y-75628210D01*
X189129185Y-75540609D01*
X189129172Y-75540602D01*
X188983501Y-75480264D01*
X188983489Y-75480261D01*
X188828845Y-75449500D01*
X188828842Y-75449500D01*
X188671158Y-75449500D01*
X188671155Y-75449500D01*
X188516510Y-75480261D01*
X188516498Y-75480264D01*
X188370827Y-75540602D01*
X188370814Y-75540609D01*
X188239711Y-75628210D01*
X188239707Y-75628213D01*
X188128213Y-75739707D01*
X188128210Y-75739711D01*
X188040609Y-75870814D01*
X188040602Y-75870827D01*
X187980264Y-76016498D01*
X187980261Y-76016510D01*
X187949500Y-76171153D01*
X159450500Y-76171153D01*
X159450500Y-72871888D01*
X180400235Y-72871888D01*
X180400235Y-73029581D01*
X180430996Y-73184224D01*
X180430999Y-73184236D01*
X180491337Y-73329907D01*
X180491344Y-73329920D01*
X180578945Y-73461023D01*
X180578948Y-73461027D01*
X180690442Y-73572521D01*
X180690446Y-73572524D01*
X180821549Y-73660125D01*
X180821562Y-73660132D01*
X180967233Y-73720470D01*
X180967238Y-73720472D01*
X181001587Y-73727304D01*
X181033486Y-73733650D01*
X181095397Y-73766035D01*
X181129971Y-73826750D01*
X181126232Y-73896520D01*
X181085365Y-73953192D01*
X181033488Y-73976884D01*
X181016507Y-73980261D01*
X181016498Y-73980264D01*
X180870827Y-74040602D01*
X180870814Y-74040609D01*
X180739711Y-74128210D01*
X180739707Y-74128213D01*
X180628213Y-74239707D01*
X180628210Y-74239711D01*
X180540609Y-74370814D01*
X180540602Y-74370827D01*
X180480264Y-74516498D01*
X180480261Y-74516510D01*
X180449500Y-74671153D01*
X180449500Y-74828846D01*
X180480261Y-74983489D01*
X180480264Y-74983501D01*
X180540602Y-75129172D01*
X180540609Y-75129185D01*
X180628210Y-75260288D01*
X180628213Y-75260292D01*
X180739707Y-75371786D01*
X180739711Y-75371789D01*
X180870814Y-75459390D01*
X180870827Y-75459397D01*
X181016498Y-75519735D01*
X181016503Y-75519737D01*
X181171153Y-75550499D01*
X181171156Y-75550500D01*
X181171158Y-75550500D01*
X181328844Y-75550500D01*
X181328845Y-75550499D01*
X181483497Y-75519737D01*
X181629179Y-75459394D01*
X181760289Y-75371789D01*
X181871789Y-75260289D01*
X181959394Y-75129179D01*
X182019737Y-74983497D01*
X182050500Y-74828842D01*
X182050500Y-74671158D01*
X182050500Y-74671155D01*
X182050499Y-74671153D01*
X182019738Y-74516510D01*
X182019737Y-74516503D01*
X182017163Y-74510288D01*
X181959397Y-74370827D01*
X181959390Y-74370814D01*
X181871789Y-74239711D01*
X181871786Y-74239707D01*
X181760292Y-74128213D01*
X181760288Y-74128210D01*
X181629185Y-74040609D01*
X181629173Y-74040602D01*
X181606741Y-74031311D01*
X181606729Y-74031307D01*
X181483497Y-73980263D01*
X181409604Y-73965564D01*
X181402208Y-73963098D01*
X181379660Y-73947422D01*
X181355336Y-73934698D01*
X181351389Y-73927767D01*
X181344840Y-73923214D01*
X181343988Y-73921153D01*
X189949500Y-73921153D01*
X189949500Y-74078846D01*
X189980261Y-74233489D01*
X189980264Y-74233501D01*
X190040602Y-74379172D01*
X190040609Y-74379185D01*
X190128210Y-74510288D01*
X190128213Y-74510292D01*
X190239707Y-74621786D01*
X190239711Y-74621789D01*
X190370814Y-74709390D01*
X190370827Y-74709397D01*
X190516498Y-74769735D01*
X190516503Y-74769737D01*
X190671153Y-74800499D01*
X190671156Y-74800500D01*
X190671158Y-74800500D01*
X190828844Y-74800500D01*
X190828845Y-74800499D01*
X190983497Y-74769737D01*
X191129179Y-74709394D01*
X191260289Y-74621789D01*
X191371789Y-74510289D01*
X191459394Y-74379179D01*
X191462854Y-74370827D01*
X191517163Y-74239711D01*
X191519737Y-74233497D01*
X191550500Y-74078842D01*
X191550500Y-73921158D01*
X191550500Y-73921155D01*
X191550499Y-73921153D01*
X191519737Y-73766503D01*
X191511883Y-73747541D01*
X191459397Y-73620827D01*
X191459390Y-73620814D01*
X191371789Y-73489711D01*
X191371786Y-73489707D01*
X191260292Y-73378213D01*
X191260288Y-73378210D01*
X191129185Y-73290609D01*
X191129172Y-73290602D01*
X190983501Y-73230264D01*
X190983489Y-73230261D01*
X190828845Y-73199500D01*
X190828842Y-73199500D01*
X190671158Y-73199500D01*
X190671155Y-73199500D01*
X190516510Y-73230261D01*
X190516498Y-73230264D01*
X190370827Y-73290602D01*
X190370814Y-73290609D01*
X190239711Y-73378210D01*
X190239707Y-73378213D01*
X190128213Y-73489707D01*
X190128210Y-73489711D01*
X190040609Y-73620814D01*
X190040602Y-73620827D01*
X189980264Y-73766498D01*
X189980261Y-73766510D01*
X189949500Y-73921153D01*
X181343988Y-73921153D01*
X181334347Y-73897839D01*
X181320762Y-73873982D01*
X181321189Y-73866018D01*
X181318141Y-73858647D01*
X181323033Y-73831627D01*
X181324503Y-73804213D01*
X181329167Y-73797744D01*
X181330589Y-73789895D01*
X181349310Y-73769811D01*
X181365370Y-73747541D01*
X181373554Y-73743803D01*
X181378231Y-73738787D01*
X181392489Y-73735157D01*
X181417249Y-73723849D01*
X181434232Y-73720472D01*
X181579914Y-73660129D01*
X181711024Y-73572524D01*
X181822524Y-73461024D01*
X181910129Y-73329914D01*
X181970472Y-73184232D01*
X182001235Y-73029577D01*
X182001235Y-72871893D01*
X182001235Y-72871890D01*
X182001234Y-72871888D01*
X181992672Y-72828844D01*
X181970472Y-72717238D01*
X181951383Y-72671153D01*
X193699500Y-72671153D01*
X193699500Y-72828846D01*
X193730261Y-72983489D01*
X193730264Y-72983501D01*
X193790602Y-73129172D01*
X193790609Y-73129185D01*
X193878210Y-73260288D01*
X193878213Y-73260292D01*
X193989707Y-73371786D01*
X193989711Y-73371789D01*
X194120814Y-73459390D01*
X194120827Y-73459397D01*
X194194013Y-73489711D01*
X194266503Y-73519737D01*
X194421153Y-73550499D01*
X194421156Y-73550500D01*
X194421158Y-73550500D01*
X194578844Y-73550500D01*
X194578845Y-73550499D01*
X194733497Y-73519737D01*
X194879179Y-73459394D01*
X195010289Y-73371789D01*
X195121789Y-73260289D01*
X195209394Y-73129179D01*
X195269737Y-72983497D01*
X195300500Y-72828842D01*
X195300500Y-72671158D01*
X195300500Y-72671155D01*
X195300499Y-72671153D01*
X195269738Y-72516510D01*
X195269737Y-72516503D01*
X195269735Y-72516498D01*
X195209397Y-72370827D01*
X195209390Y-72370814D01*
X195121789Y-72239711D01*
X195121786Y-72239707D01*
X195010292Y-72128213D01*
X195010288Y-72128210D01*
X194879185Y-72040609D01*
X194879172Y-72040602D01*
X194733501Y-71980264D01*
X194733489Y-71980261D01*
X194578845Y-71949500D01*
X194578842Y-71949500D01*
X194421158Y-71949500D01*
X194421155Y-71949500D01*
X194266510Y-71980261D01*
X194266498Y-71980264D01*
X194120827Y-72040602D01*
X194120814Y-72040609D01*
X193989711Y-72128210D01*
X193989707Y-72128213D01*
X193878213Y-72239707D01*
X193878210Y-72239711D01*
X193790609Y-72370814D01*
X193790602Y-72370827D01*
X193730264Y-72516498D01*
X193730261Y-72516510D01*
X193699500Y-72671153D01*
X181951383Y-72671153D01*
X181939382Y-72642180D01*
X181910132Y-72571562D01*
X181910125Y-72571549D01*
X181822524Y-72440446D01*
X181822521Y-72440442D01*
X181711027Y-72328948D01*
X181711023Y-72328945D01*
X181579920Y-72241344D01*
X181579907Y-72241337D01*
X181434236Y-72180999D01*
X181434224Y-72180996D01*
X181279580Y-72150235D01*
X181279577Y-72150235D01*
X181121893Y-72150235D01*
X181121890Y-72150235D01*
X180967245Y-72180996D01*
X180967233Y-72180999D01*
X180821562Y-72241337D01*
X180821549Y-72241344D01*
X180690446Y-72328945D01*
X180690442Y-72328948D01*
X180578948Y-72440442D01*
X180578945Y-72440446D01*
X180491344Y-72571549D01*
X180491337Y-72571562D01*
X180430999Y-72717233D01*
X180430996Y-72717245D01*
X180400235Y-72871888D01*
X159450500Y-72871888D01*
X159450500Y-68171153D01*
X162449500Y-68171153D01*
X162449500Y-68328846D01*
X162480261Y-68483489D01*
X162480264Y-68483501D01*
X162540602Y-68629172D01*
X162540609Y-68629185D01*
X162628210Y-68760288D01*
X162628213Y-68760292D01*
X162739707Y-68871786D01*
X162777289Y-68896898D01*
X162822093Y-68950511D01*
X162830800Y-69019836D01*
X162800645Y-69082863D01*
X162777289Y-69103102D01*
X162739707Y-69128213D01*
X162628213Y-69239707D01*
X162628210Y-69239711D01*
X162540609Y-69370814D01*
X162540602Y-69370827D01*
X162480264Y-69516498D01*
X162480261Y-69516510D01*
X162449500Y-69671153D01*
X162449500Y-69828846D01*
X162480261Y-69983489D01*
X162480264Y-69983501D01*
X162540602Y-70129172D01*
X162540609Y-70129185D01*
X162628210Y-70260288D01*
X162628213Y-70260292D01*
X162739707Y-70371786D01*
X162739711Y-70371789D01*
X162870814Y-70459390D01*
X162870827Y-70459397D01*
X163016498Y-70519735D01*
X163016503Y-70519737D01*
X163171153Y-70550499D01*
X163171156Y-70550500D01*
X163171158Y-70550500D01*
X163328844Y-70550500D01*
X163328845Y-70550499D01*
X163483497Y-70519737D01*
X163629179Y-70459394D01*
X163760289Y-70371789D01*
X163871789Y-70260289D01*
X163959394Y-70129179D01*
X164019737Y-69983497D01*
X164050500Y-69828842D01*
X164050500Y-69671158D01*
X164050500Y-69671155D01*
X164050499Y-69671153D01*
X164024531Y-69540606D01*
X164019737Y-69516503D01*
X163980242Y-69421153D01*
X179949500Y-69421153D01*
X179949500Y-69578846D01*
X179980261Y-69733489D01*
X179980264Y-69733501D01*
X180040602Y-69879172D01*
X180040609Y-69879185D01*
X180128210Y-70010288D01*
X180128213Y-70010292D01*
X180239707Y-70121786D01*
X180239711Y-70121789D01*
X180370814Y-70209390D01*
X180370827Y-70209397D01*
X180516498Y-70269735D01*
X180516503Y-70269737D01*
X180671153Y-70300499D01*
X180671156Y-70300500D01*
X180671158Y-70300500D01*
X180828844Y-70300500D01*
X180828845Y-70300499D01*
X180983497Y-70269737D01*
X181129179Y-70209394D01*
X181186411Y-70171153D01*
X185949500Y-70171153D01*
X185949500Y-70328846D01*
X185980261Y-70483489D01*
X185980264Y-70483501D01*
X186040602Y-70629172D01*
X186040609Y-70629185D01*
X186128210Y-70760288D01*
X186128213Y-70760292D01*
X186239707Y-70871786D01*
X186239711Y-70871789D01*
X186370814Y-70959390D01*
X186370827Y-70959397D01*
X186516498Y-71019735D01*
X186516503Y-71019737D01*
X186671153Y-71050499D01*
X186671156Y-71050500D01*
X186671158Y-71050500D01*
X186828844Y-71050500D01*
X186828845Y-71050499D01*
X186983497Y-71019737D01*
X187129179Y-70959394D01*
X187260289Y-70871789D01*
X187371789Y-70760289D01*
X187459394Y-70629179D01*
X187519737Y-70483497D01*
X187550500Y-70328842D01*
X187550500Y-70171158D01*
X187550500Y-70171155D01*
X187550499Y-70171153D01*
X187519738Y-70016510D01*
X187519737Y-70016503D01*
X187500424Y-69969879D01*
X187492956Y-69900410D01*
X187524231Y-69837931D01*
X187584320Y-69802279D01*
X187654145Y-69804773D01*
X187702667Y-69834746D01*
X187739707Y-69871786D01*
X187739711Y-69871789D01*
X187870814Y-69959390D01*
X187870827Y-69959397D01*
X188008683Y-70016498D01*
X188016503Y-70019737D01*
X188171153Y-70050499D01*
X188171156Y-70050500D01*
X188171158Y-70050500D01*
X188328844Y-70050500D01*
X188328845Y-70050499D01*
X188483497Y-70019737D01*
X188629179Y-69959394D01*
X188760289Y-69871789D01*
X188871789Y-69760289D01*
X188959394Y-69629179D01*
X189019737Y-69483497D01*
X189050500Y-69328842D01*
X189050500Y-69171158D01*
X189050500Y-69171155D01*
X189050499Y-69171153D01*
X189019738Y-69016510D01*
X189019737Y-69016503D01*
X189012901Y-69000000D01*
X188959397Y-68870827D01*
X188959390Y-68870814D01*
X188871789Y-68739711D01*
X188871786Y-68739707D01*
X188760292Y-68628213D01*
X188760288Y-68628210D01*
X188629185Y-68540609D01*
X188629172Y-68540602D01*
X188483501Y-68480264D01*
X188483489Y-68480261D01*
X188328845Y-68449500D01*
X188328842Y-68449500D01*
X188171158Y-68449500D01*
X188171155Y-68449500D01*
X188016510Y-68480261D01*
X188016498Y-68480264D01*
X187870827Y-68540602D01*
X187870814Y-68540609D01*
X187739711Y-68628210D01*
X187739707Y-68628213D01*
X187628213Y-68739707D01*
X187628210Y-68739711D01*
X187540609Y-68870814D01*
X187540602Y-68870827D01*
X187480264Y-69016498D01*
X187480261Y-69016510D01*
X187449500Y-69171153D01*
X187449500Y-69328846D01*
X187480261Y-69483489D01*
X187480263Y-69483497D01*
X187499575Y-69530120D01*
X187507043Y-69599590D01*
X187475767Y-69662069D01*
X187415678Y-69697721D01*
X187345853Y-69695226D01*
X187297332Y-69665253D01*
X187260292Y-69628213D01*
X187260288Y-69628210D01*
X187129185Y-69540609D01*
X187129172Y-69540602D01*
X186983501Y-69480264D01*
X186983489Y-69480261D01*
X186828845Y-69449500D01*
X186828842Y-69449500D01*
X186671158Y-69449500D01*
X186671155Y-69449500D01*
X186516510Y-69480261D01*
X186516498Y-69480264D01*
X186370827Y-69540602D01*
X186370814Y-69540609D01*
X186239711Y-69628210D01*
X186239707Y-69628213D01*
X186128213Y-69739707D01*
X186128210Y-69739711D01*
X186040609Y-69870814D01*
X186040602Y-69870827D01*
X185980264Y-70016498D01*
X185980261Y-70016510D01*
X185949500Y-70171153D01*
X181186411Y-70171153D01*
X181260289Y-70121789D01*
X181260292Y-70121786D01*
X181304694Y-70077385D01*
X181371786Y-70010292D01*
X181371789Y-70010289D01*
X181459394Y-69879179D01*
X181462854Y-69870827D01*
X181517163Y-69739711D01*
X181519737Y-69733497D01*
X181550500Y-69578842D01*
X181550500Y-69421158D01*
X181550500Y-69421155D01*
X181550499Y-69421153D01*
X181519738Y-69266510D01*
X181519737Y-69266503D01*
X181519735Y-69266498D01*
X181459397Y-69120827D01*
X181459390Y-69120814D01*
X181371789Y-68989711D01*
X181371786Y-68989707D01*
X181260292Y-68878213D01*
X181260288Y-68878210D01*
X181129185Y-68790609D01*
X181129172Y-68790602D01*
X180983501Y-68730264D01*
X180983489Y-68730261D01*
X180828845Y-68699500D01*
X180828842Y-68699500D01*
X180671158Y-68699500D01*
X180671155Y-68699500D01*
X180516510Y-68730261D01*
X180516498Y-68730264D01*
X180370827Y-68790602D01*
X180370814Y-68790609D01*
X180239711Y-68878210D01*
X180239707Y-68878213D01*
X180128213Y-68989707D01*
X180128210Y-68989711D01*
X180040609Y-69120814D01*
X180040602Y-69120827D01*
X179980264Y-69266498D01*
X179980261Y-69266510D01*
X179949500Y-69421153D01*
X163980242Y-69421153D01*
X163979933Y-69420408D01*
X163959397Y-69370827D01*
X163959390Y-69370814D01*
X163871789Y-69239711D01*
X163871786Y-69239707D01*
X163834746Y-69202667D01*
X163801261Y-69141344D01*
X163806245Y-69071652D01*
X163848117Y-69015719D01*
X163913581Y-68991302D01*
X163969878Y-69000424D01*
X164016503Y-69019737D01*
X164121418Y-69040606D01*
X164171153Y-69050499D01*
X164171156Y-69050500D01*
X164171158Y-69050500D01*
X164328844Y-69050500D01*
X164328845Y-69050499D01*
X164483497Y-69019737D01*
X164629179Y-68959394D01*
X164760289Y-68871789D01*
X164871789Y-68760289D01*
X164959394Y-68629179D01*
X165019737Y-68483497D01*
X165050500Y-68328842D01*
X165050500Y-68171158D01*
X165050500Y-68171155D01*
X165050499Y-68171153D01*
X165019738Y-68016510D01*
X165019737Y-68016503D01*
X165019735Y-68016498D01*
X164959397Y-67870827D01*
X164959390Y-67870814D01*
X164871789Y-67739711D01*
X164871786Y-67739707D01*
X164760292Y-67628213D01*
X164760288Y-67628210D01*
X164629185Y-67540609D01*
X164629172Y-67540602D01*
X164483501Y-67480264D01*
X164483489Y-67480261D01*
X164328845Y-67449500D01*
X164328842Y-67449500D01*
X164171158Y-67449500D01*
X164171155Y-67449500D01*
X164016510Y-67480261D01*
X164016498Y-67480264D01*
X163870827Y-67540602D01*
X163870814Y-67540609D01*
X163818891Y-67575304D01*
X163752214Y-67596182D01*
X163684833Y-67577698D01*
X163681109Y-67575304D01*
X163629185Y-67540609D01*
X163629172Y-67540602D01*
X163483501Y-67480264D01*
X163483489Y-67480261D01*
X163328845Y-67449500D01*
X163328842Y-67449500D01*
X163171158Y-67449500D01*
X163171155Y-67449500D01*
X163016510Y-67480261D01*
X163016498Y-67480264D01*
X162870827Y-67540602D01*
X162870814Y-67540609D01*
X162739711Y-67628210D01*
X162739707Y-67628213D01*
X162628213Y-67739707D01*
X162628210Y-67739711D01*
X162540609Y-67870814D01*
X162540602Y-67870827D01*
X162480264Y-68016498D01*
X162480261Y-68016510D01*
X162449500Y-68171153D01*
X159450500Y-68171153D01*
X159450500Y-65624500D01*
X159470185Y-65557461D01*
X159522989Y-65511706D01*
X159574500Y-65500500D01*
X199375500Y-65500500D01*
X199442539Y-65520185D01*
G37*
%TD.AperFunction*%
%TD*%
M02*
