M48
; DRILL file {KiCad 9.0.1} date 2025-11-28T17:08:12+0100
; FORMAT={-:-/ absolute / metric / decimal}
; #@! TF.CreationDate,2025-11-28T17:08:12+01:00
; #@! TF.GenerationSoftware,Kicad,Pcbnew,9.0.1
; #@! TF.FileFunction,Plated,1,4,PTH
FMAT,2
METRIC
; #@! TA.AperFunction,Plated,PTH,ComponentDrill
T1C0.200
; #@! TA.AperFunction,Plated,PTH,ViaDrill
T2C0.300
; #@! TA.AperFunction,Plated,PTH,ComponentDrill
T3C0.600
%
G90
G05
T1
X171.89Y-73.427
X171.89Y-74.953
X172.653Y-72.665
X172.653Y-74.19
X172.653Y-75.715
X173.415Y-73.427
X173.415Y-74.953
X174.177Y-72.665
X174.177Y-74.19
X174.177Y-75.715
X174.94Y-73.427
X174.94Y-74.953
T2
X160.5Y-68.25
X160.5Y-69.75
X160.5Y-71.25
X163.25Y-68.25
X163.25Y-69.75
X164.25Y-67.0
X164.25Y-68.25
X168.5Y-86.0
X171.0Y-100.5
X172.25Y-88.75
X172.25Y-99.5
X173.0Y-101.25
X173.5Y-88.75
X173.5Y-99.5
X174.25Y-102.75
X174.75Y-94.1
X180.0Y-103.75
X180.75Y-69.5
X181.201Y-72.951
X181.25Y-74.75
X181.75Y-67.0
X182.0Y-88.0
X183.75Y-96.25
X184.5Y-92.5
X184.588Y-95.75
X185.0Y-89.0
X186.0Y-86.5
X186.688Y-96.167
X186.75Y-70.25
X187.887Y-96.167
X187.907Y-94.9
X188.25Y-69.25
X188.75Y-76.25
X189.0Y-86.5
X189.0Y-88.0
X189.25Y-96.0
X190.25Y-96.25
X190.5Y-77.75
X190.5Y-89.0
X190.75Y-74.0
X191.0Y-86.75
X192.0Y-91.5
X192.5Y-94.0
X194.0Y-102.75
X194.5Y-72.75
X194.5Y-74.0
X194.5Y-86.5
X194.753Y-85.741
X195.5Y-89.25
X195.75Y-90.75
X196.75Y-83.25
X197.0Y-81.9
T3
G00X182.718Y-97.69
M15
G01X182.718Y-98.79
M16
G05
G00X182.718Y-102.12
M15
G01X182.718Y-102.72
M16
G05
G00X191.357Y-97.69
M15
G01X191.357Y-98.79
M16
G05
G00X191.357Y-102.12
M15
G01X191.357Y-102.72
M16
G05
M30
