%TF.GenerationSoftware,KiCad,Pcbnew,9.0.1*%
%TF.CreationDate,2025-11-28T17:08:09+01:00*%
%TF.ProjectId,SCD41-D-R1_demo,53434434-312d-4442-9d52-315f64656d6f,rev?*%
%TF.SameCoordinates,Original*%
%TF.FileFunction,Soldermask,Top*%
%TF.FilePolarity,Negative*%
%FSLAX46Y46*%
G04 Gerber Fmt 4.6, Leading zero omitted, Abs format (unit mm)*
G04 Created by KiCad (PCBNEW 9.0.1) date 2025-11-28 17:08:09*
%MOMM*%
%LPD*%
G01*
G04 APERTURE LIST*
G04 Aperture macros list*
%AMRoundRect*
0 Rectangle with rounded corners*
0 $1 Rounding radius*
0 $2 $3 $4 $5 $6 $7 $8 $9 X,Y pos of 4 corners*
0 Add a 4 corners polygon primitive as box body*
4,1,4,$2,$3,$4,$5,$6,$7,$8,$9,$2,$3,0*
0 Add four circle primitives for the rounded corners*
1,1,$1+$1,$2,$3*
1,1,$1+$1,$4,$5*
1,1,$1+$1,$6,$7*
1,1,$1+$1,$8,$9*
0 Add four rect primitives between the rounded corners*
20,1,$1+$1,$2,$3,$4,$5,0*
20,1,$1+$1,$4,$5,$6,$7,0*
20,1,$1+$1,$6,$7,$8,$9,0*
20,1,$1+$1,$8,$9,$2,$3,0*%
G04 Aperture macros list end*
%ADD10RoundRect,0.200000X-0.200000X-0.275000X0.200000X-0.275000X0.200000X0.275000X-0.200000X0.275000X0*%
%ADD11RoundRect,0.225000X0.250000X-0.225000X0.250000X0.225000X-0.250000X0.225000X-0.250000X-0.225000X0*%
%ADD12RoundRect,0.062500X-0.337500X-0.062500X0.337500X-0.062500X0.337500X0.062500X-0.337500X0.062500X0*%
%ADD13RoundRect,0.062500X-0.062500X-0.337500X0.062500X-0.337500X0.062500X0.337500X-0.062500X0.337500X0*%
%ADD14R,3.350000X3.350000*%
%ADD15RoundRect,0.250000X-0.450000X0.262500X-0.450000X-0.262500X0.450000X-0.262500X0.450000X0.262500X0*%
%ADD16RoundRect,0.250000X-0.262500X-0.450000X0.262500X-0.450000X0.262500X0.450000X-0.262500X0.450000X0*%
%ADD17RoundRect,0.225000X0.225000X0.250000X-0.225000X0.250000X-0.225000X-0.250000X0.225000X-0.250000X0*%
%ADD18R,2.400000X0.740000*%
%ADD19RoundRect,0.225000X-0.225000X-0.250000X0.225000X-0.250000X0.225000X0.250000X-0.225000X0.250000X0*%
%ADD20RoundRect,0.218750X0.218750X0.256250X-0.218750X0.256250X-0.218750X-0.256250X0.218750X-0.256250X0*%
%ADD21RoundRect,0.100000X-0.225000X-0.100000X0.225000X-0.100000X0.225000X0.100000X-0.225000X0.100000X0*%
%ADD22C,0.650000*%
%ADD23R,0.600000X1.450000*%
%ADD24R,0.300000X1.450000*%
%ADD25O,1.000000X2.100000*%
%ADD26O,1.000000X1.600000*%
%ADD27RoundRect,0.200000X0.200000X0.275000X-0.200000X0.275000X-0.200000X-0.275000X0.200000X-0.275000X0*%
%ADD28RoundRect,0.150000X0.150000X-0.512500X0.150000X0.512500X-0.150000X0.512500X-0.150000X-0.512500X0*%
%ADD29RoundRect,0.150000X-0.512500X-0.150000X0.512500X-0.150000X0.512500X0.150000X-0.512500X0.150000X0*%
%ADD30R,1.500000X0.900000*%
%ADD31R,0.900000X1.500000*%
%ADD32C,0.600000*%
%ADD33R,4.200000X4.200000*%
%ADD34RoundRect,0.212500X-0.737500X-0.212500X0.737500X-0.212500X0.737500X0.212500X-0.737500X0.212500X0*%
%ADD35RoundRect,0.212500X-0.212500X-0.737500X0.212500X-0.737500X0.212500X0.737500X-0.212500X0.737500X0*%
%ADD36R,4.800000X4.800000*%
G04 APERTURE END LIST*
D10*
%TO.C,R13*%
X193000000Y-94000000D03*
X194650000Y-94000000D03*
%TD*%
D11*
%TO.C,C9*%
X191000000Y-89000000D03*
X191000000Y-87450000D03*
%TD*%
D12*
%TO.C,U7*%
X192550000Y-88500000D03*
X192550000Y-89000000D03*
X192550000Y-89500000D03*
X192550000Y-90000000D03*
X192550000Y-90500000D03*
X192550000Y-91000000D03*
X192550000Y-91500000D03*
D13*
X193500000Y-92450000D03*
X194000000Y-92450000D03*
X194500000Y-92450000D03*
X195000000Y-92450000D03*
X195500000Y-92450000D03*
X196000000Y-92450000D03*
X196500000Y-92450000D03*
D12*
X197450000Y-91500000D03*
X197450000Y-91000000D03*
X197450000Y-90500000D03*
X197450000Y-90000000D03*
X197450000Y-89500000D03*
X197450000Y-89000000D03*
X197450000Y-88500000D03*
D13*
X196500000Y-87550000D03*
X196000000Y-87550000D03*
X195500000Y-87550000D03*
X195000000Y-87550000D03*
X194500000Y-87550000D03*
X194000000Y-87550000D03*
X193500000Y-87550000D03*
D14*
X195000000Y-90000000D03*
%TD*%
D15*
%TO.C,R5*%
X194000000Y-100000000D03*
X194000000Y-101825000D03*
%TD*%
D16*
%TO.C,R17*%
X175000000Y-102700000D03*
X176825000Y-102700000D03*
%TD*%
%TO.C,R16*%
X175000000Y-100700000D03*
X176825000Y-100700000D03*
%TD*%
D10*
%TO.C,R9*%
X187400000Y-70400000D03*
X189050000Y-70400000D03*
%TD*%
D17*
%TO.C,C5*%
X173150000Y-100600000D03*
X171600000Y-100600000D03*
%TD*%
D18*
%TO.C,J3*%
X189050000Y-72730000D03*
X192950000Y-72730000D03*
X189050000Y-74000000D03*
X192950000Y-74000000D03*
X189050000Y-75270000D03*
X192950000Y-75270000D03*
%TD*%
D19*
%TO.C,C2*%
X182217500Y-92545000D03*
X183767500Y-92545000D03*
%TD*%
D20*
%TO.C,FB1*%
X183742500Y-91045000D03*
X182167500Y-91045000D03*
%TD*%
D19*
%TO.C,C8*%
X161150000Y-68200000D03*
X162700000Y-68200000D03*
%TD*%
%TO.C,C6*%
X161100000Y-71200000D03*
X162650000Y-71200000D03*
%TD*%
D21*
%TO.C,Q1*%
X196000000Y-77350000D03*
X196000000Y-78000000D03*
X196000000Y-78650000D03*
X197900000Y-78650000D03*
X197900000Y-78000000D03*
X197900000Y-77350000D03*
%TD*%
D22*
%TO.C,J4*%
X184147500Y-98770000D03*
X189927500Y-98770000D03*
D23*
X183787500Y-97325000D03*
X184587500Y-97325000D03*
D24*
X185787500Y-97325000D03*
X186787500Y-97325000D03*
X187287500Y-97325000D03*
X188287500Y-97325000D03*
D23*
X189487500Y-97325000D03*
X190287500Y-97325000D03*
X190287500Y-97325000D03*
X189487500Y-97325000D03*
D24*
X188787500Y-97325000D03*
X187787500Y-97325000D03*
X186287500Y-97325000D03*
X185287500Y-97325000D03*
D23*
X184587500Y-97325000D03*
X183787500Y-97325000D03*
D25*
X182717500Y-98240000D03*
D26*
X182717500Y-102420000D03*
D25*
X191357500Y-98240000D03*
D26*
X191357500Y-102420000D03*
%TD*%
D27*
%TO.C,R15*%
X198000000Y-75000000D03*
X196350000Y-75000000D03*
%TD*%
D28*
%TO.C,U3*%
X187100000Y-94000000D03*
X188050000Y-94000000D03*
X189000000Y-94000000D03*
X189000000Y-91725000D03*
X188050000Y-91725000D03*
X187100000Y-91725000D03*
%TD*%
D29*
%TO.C,U2*%
X185825000Y-88000000D03*
X185825000Y-88950000D03*
X185825000Y-89900000D03*
X188100000Y-89900000D03*
X188100000Y-88000000D03*
%TD*%
D30*
%TO.C,U4*%
X165345000Y-66850000D03*
X165345000Y-68120000D03*
X165345000Y-69390000D03*
X165345000Y-70660000D03*
X165345000Y-71930000D03*
X165345000Y-73200000D03*
X165345000Y-74470000D03*
X165345000Y-75740000D03*
X165345000Y-77010000D03*
X165345000Y-78280000D03*
X165345000Y-79550000D03*
X165345000Y-80820000D03*
X165345000Y-82090000D03*
X165345000Y-83360000D03*
D31*
X168385000Y-84610000D03*
X169655000Y-84610000D03*
X170925000Y-84610000D03*
X172195000Y-84610000D03*
X173465000Y-84610000D03*
X174735000Y-84610000D03*
X176005000Y-84610000D03*
X177275000Y-84610000D03*
X178545000Y-84610000D03*
X179815000Y-84610000D03*
D30*
X182845000Y-83360000D03*
X182845000Y-82090000D03*
X182845000Y-80820000D03*
X182845000Y-79550000D03*
X182845000Y-78280000D03*
X182845000Y-77010000D03*
X182845000Y-75740000D03*
X182845000Y-74470000D03*
X182845000Y-73200000D03*
X182845000Y-71930000D03*
X182845000Y-70660000D03*
X182845000Y-69390000D03*
X182845000Y-68120000D03*
X182845000Y-66850000D03*
D32*
X171890000Y-73427500D03*
X171890000Y-74952500D03*
X172652500Y-72665000D03*
X172652500Y-74190000D03*
X172652500Y-75715000D03*
X173415000Y-73427500D03*
D33*
X173415000Y-74190000D03*
D32*
X173415000Y-74952500D03*
X174177500Y-72665000D03*
X174177500Y-74190000D03*
X174177500Y-75715000D03*
X174940000Y-73427500D03*
X174940000Y-74952500D03*
%TD*%
D15*
%TO.C,R1*%
X180000000Y-101087500D03*
X180000000Y-102912500D03*
%TD*%
D10*
%TO.C,R14*%
X196250000Y-80500000D03*
X197900000Y-80500000D03*
%TD*%
%TO.C,R10*%
X191200000Y-77600000D03*
X192850000Y-77600000D03*
%TD*%
D19*
%TO.C,C7*%
X161125000Y-69700000D03*
X162675000Y-69700000D03*
%TD*%
D17*
%TO.C,C4*%
X188317500Y-86445000D03*
X186767500Y-86445000D03*
%TD*%
%TO.C,C3*%
X184117500Y-87945000D03*
X182567500Y-87945000D03*
%TD*%
D34*
%TO.C,U1*%
X170600000Y-91600000D03*
X170600000Y-92850000D03*
X170600000Y-94100000D03*
X170600000Y-95350000D03*
X170600000Y-96600000D03*
D35*
X172250000Y-98250000D03*
X173500000Y-98250000D03*
X174750000Y-98250000D03*
X176000000Y-98250000D03*
X177250000Y-98250000D03*
D34*
X178900000Y-96600000D03*
X178900000Y-95350000D03*
X178900000Y-94100000D03*
X178900000Y-92850000D03*
X178900000Y-91600000D03*
D35*
X177250000Y-89950000D03*
X176000000Y-89950000D03*
X174750000Y-89950000D03*
X173500000Y-89950000D03*
X172250000Y-89950000D03*
D36*
X174750000Y-94100000D03*
%TD*%
M02*
